<?xml version="1.0" encoding="UTF-8"?>
<svg width="256px" height="256px" viewBox="0 0 256 256" version="1.1" xmlns="http://www.w3.org/2000/svg" xmlns:xlink="http://www.w3.org/1999/xlink">
    <!-- Generator: Sketch 52.5 (67469) - http://www.bohemiancoding.com/sketch -->
    <title>Artboard</title>
    <desc>Created with Sketch.</desc>
    <g id="Artboard" stroke="none" stroke-width="1" fill="none" fill-rule="evenodd">
        <path d="M45.9155273,124.300781 C43.7849828,124.300781 42.2936241,123.584154 41.4414062,122.150879 C40.8603487,121.143712 40.356773,119.051936 39.9306641,115.875488 C37.0253761,116.611495 32.5512997,117.967275 26.5083008,119.942871 C20.271616,122.42205 17.133952,125.482241 17.0952148,129.123535 C18.25733,129.549644 19.4000595,129.859537 20.5234375,130.053223 C29.4329873,131.641447 36.0569445,133.830064 40.3955078,136.619141 C46.709667,140.686544 49.8666992,146.574506 49.8666992,154.283203 C49.8666992,160.597362 47.1357695,165.361963 41.6738281,168.577148 C37.1415789,171.211276 31.4085633,172.52832 24.4746094,172.52832 C19.4000397,172.52832 14.5579658,171.676115 9.94824219,169.97168 C3.98271757,167.802398 1,164.780944 1,160.907227 C1,159.35774 1.61010132,158.001959 2.83032227,156.839844 C4.05054321,155.677729 5.43537637,155.09668 6.98486328,155.09668 C8.18571564,155.09668 9.73517931,156.026358 11.6333008,157.885742 C12.5629929,158.776697 14.6547689,159.512692 17.9086914,160.09375 C20.504082,160.558596 22.6926994,160.791016 24.4746094,160.791016 C27.7285319,160.791016 30.5950397,160.40365 33.0742188,159.628906 C36.6767758,158.505528 38.4780273,156.723645 38.4780273,154.283203 C38.4780273,149.014948 34.7980511,145.451181 27.4379883,143.591797 L21.3950195,142.255371 C16.2429755,141.131993 12.5823676,139.814949 10.4130859,138.304199 C7.27537494,136.134918 5.70654297,132.861676 5.70654297,128.484375 C5.70654297,120.388306 9.52209726,114.616554 17.1533203,111.168945 C19.4775507,110.123042 23.1962635,108.873787 28.3095703,107.421143 C33.4228771,105.968499 37.0834851,104.738612 39.2915039,103.731445 C40.879728,103.034176 42.6035063,102.685547 44.4628906,102.685547 C46.1285891,102.685547 47.4940539,103.227859 48.5593262,104.3125 C49.6245984,105.397141 50.1572266,106.811026 50.1572266,108.554199 C50.1572266,109.677577 50.3993303,111.323882 50.8835449,113.493164 C51.3677596,115.662446 51.6098633,117.308751 51.6098633,118.432129 C51.6098633,120.175302 51.0772351,121.589187 50.0119629,122.673828 C48.9466906,123.758469 47.5812258,124.300781 45.9155273,124.300781 Z M71.1310018,95.4804688 C69.2716175,95.4804688 67.664049,94.8219467 66.3082479,93.5048828 C64.9524469,92.1878189 64.2745565,90.5996187 64.2745565,88.7402344 C64.2745565,86.8808501 64.9524469,85.2926498 66.3082479,83.9755859 C67.664049,82.6585221 69.2716175,82 71.1310018,82 C72.9903861,82 74.5882705,82.6585221 75.924703,83.9755859 C77.2611354,85.2926498 77.9293417,86.8808501 77.9293417,88.7402344 C77.9293417,90.5996187 77.2611354,92.1878189 75.924703,93.5048828 C74.5882705,94.8219467 72.9903861,95.4804688 71.1310018,95.4804688 Z M73.7457479,142.662109 C73.7457479,144.98634 73.8135369,148.462949 73.949117,153.092041 C74.0846972,157.721133 74.1524862,161.197742 74.1524862,163.521973 C74.1524862,165.226408 73.6295422,166.620926 72.5836385,167.705566 C71.5377349,168.790207 70.1625859,169.33252 68.4581503,169.33252 C66.7924518,169.33252 65.426987,168.790207 64.3617147,167.705566 C63.2964424,166.620926 62.7638143,165.226408 62.7638143,163.521973 C62.7638143,161.197742 62.6960253,157.721133 62.5604452,153.092041 C62.4248651,148.462949 62.357076,144.98634 62.357076,142.662109 C62.357076,139.020815 62.550759,134.47895 62.9381307,129.036377 C63.3255024,123.593804 63.5191854,119.051939 63.5191854,115.410645 C63.5191854,113.667472 64.0518135,112.253586 65.1170858,111.168945 C66.1823581,110.084304 67.5478229,109.541992 69.2135213,109.541992 C70.8792198,109.541992 72.2446846,110.084304 73.3099569,111.168945 C74.3752291,112.253586 74.9078573,113.667472 74.9078573,115.410645 C74.9078573,119.051939 74.7141743,123.593804 74.3268026,129.036377 C73.9394309,134.47895 73.7457479,139.020815 73.7457479,142.662109 Z M133.35966,173.16748 C130.028263,173.16748 128.149538,171.346861 127.723429,167.705566 L126.096476,154.980469 C125.554156,150.44822 125.283,146.206563 125.283,142.255371 C125.283,141.17073 125.350789,139.330742 125.486369,136.735352 C125.621949,134.139961 125.689738,132.299973 125.689738,131.215332 C125.689738,122.848103 124.140274,118.664551 121.041301,118.664551 C116.702737,118.664551 112.557922,121.240534 108.60673,126.392578 C105.04291,131.079776 102.253876,137.006475 100.239543,144.172852 C100.162068,145.683601 99.9877537,147.581694 99.7165935,149.867188 C99.4841704,151.804046 99.3679607,153.682771 99.3679607,155.503418 C99.3679607,156.665533 99.4841704,158.40868 99.7165935,160.73291 C99.9490165,163.057141 100.065226,164.800287 100.065226,165.962402 C100.065226,167.705575 99.5325981,169.119461 98.4673259,170.204102 C97.4020536,171.288742 96.0365888,171.831055 94.3708903,171.831055 C92.6664547,171.831055 91.2913057,171.288742 90.2454021,170.204102 C89.1994984,169.119461 88.6765544,167.705575 88.6765544,165.962402 C88.6765544,164.800287 88.5506605,163.057141 88.2988689,160.73291 C88.0470772,158.40868 87.9211833,156.665533 87.9211833,155.503418 C87.9211833,151.513489 88.2020236,145.983841 88.7637126,138.914307 C89.3254016,131.844773 89.6062419,126.315124 89.6062419,122.325195 C89.6062419,121.085606 89.5384529,119.245618 89.4028728,116.805176 C89.2672927,114.364734 89.1995036,112.524746 89.1995036,111.285156 C89.1995036,109.619458 89.7515001,108.253993 90.8555095,107.188721 C91.9595189,106.123448 93.3249838,105.59082 94.951945,105.59082 C98.5157649,105.59082 100.471963,108.108699 100.820597,113.144531 L100.994914,119.942871 C107.502759,111.265744 114.184821,106.927246 121.041301,106.927246 C127.239248,106.927246 131.558378,109.658176 133.99882,115.120117 C135.664518,118.761411 136.574828,124.145798 136.729777,131.273438 L136.729777,137.14209 L136.671672,142.545898 C136.671672,145.761084 137.08809,149.915583 137.920939,155.009521 C138.753788,160.10346 139.170207,164.238591 139.170207,167.415039 C139.170207,169.119475 138.61821,170.504308 137.514201,171.56958 C136.410191,172.634852 135.025358,173.16748 133.35966,173.16748 Z M168.278748,172.470215 C161.770903,172.470215 156.173465,170.068546 151.486267,165.265137 C146.256749,159.919407 143.506451,152.733769 143.235291,143.708008 C143.002868,134.953407 145.210853,127.244825 149.859314,120.582031 C155.282518,112.718385 162.836154,108.786621 172.520447,108.786621 C180.267881,108.786621 186.136475,112.331019 190.126404,119.419922 C193.302852,125.153023 194.832947,132.048137 194.716736,140.105469 C194.600524,148.705121 192.353802,156.045705 187.976502,162.127441 C183.018143,169.022658 176.452291,172.470215 168.278748,172.470215 Z M171.765076,120.582031 C166.070711,120.543294 161.635372,123.254856 158.458923,128.716797 C155.941007,133.094097 154.682068,138.091118 154.682068,143.708008 C154.682068,149.324898 156.212163,153.702133 159.2724,156.839844 C161.829053,159.435234 164.831139,160.73291 168.278748,160.73291 C172.307414,160.73291 175.774339,159.26092 178.679627,156.316895 C181.972286,153.062972 183.715433,148.666369 183.909119,143.126953 C184.451439,128.135667 180.403465,120.620768 171.765076,120.582031 Z M249.04305,173.16748 C245.711653,173.16748 243.832929,171.346861 243.40682,167.705566 L241.779867,154.980469 C241.237546,150.44822 240.96639,146.206563 240.96639,142.255371 C240.96639,141.17073 241.034179,139.330742 241.169759,136.735352 C241.305339,134.139961 241.373128,132.299973 241.373128,131.215332 C241.373128,122.848103 239.823665,118.664551 236.724691,118.664551 C232.386127,118.664551 228.241312,121.240534 224.290121,126.392578 C220.726301,131.079776 217.937266,137.006475 215.922933,144.172852 C215.845459,145.683601 215.671144,147.581694 215.399984,149.867188 C215.167561,151.804046 215.051351,153.682771 215.051351,155.503418 C215.051351,156.665533 215.167561,158.40868 215.399984,160.73291 C215.632407,163.057141 215.748617,164.800287 215.748617,165.962402 C215.748617,167.705575 215.215988,169.119461 214.150716,170.204102 C213.085444,171.288742 211.719979,171.831055 210.054281,171.831055 C208.349845,171.831055 206.974696,171.288742 205.928792,170.204102 C204.882889,169.119461 204.359945,167.705575 204.359945,165.962402 C204.359945,164.800287 204.234051,163.057141 203.982259,160.73291 C203.730468,158.40868 203.604574,156.665533 203.604574,155.503418 C203.604574,151.513489 203.885414,145.983841 204.447103,138.914307 C205.008792,131.844773 205.289632,126.315124 205.289632,122.325195 C205.289632,121.085606 205.221843,119.245618 205.086263,116.805176 C204.950683,114.364734 204.882894,112.524746 204.882894,111.285156 C204.882894,109.619458 205.43489,108.253993 206.5389,107.188721 C207.642909,106.123448 209.008374,105.59082 210.635335,105.59082 C214.199155,105.59082 216.155353,108.108699 216.503988,113.144531 L216.678304,119.942871 C223.186149,111.265744 229.868211,106.927246 236.724691,106.927246 C242.922639,106.927246 247.241768,109.658176 249.68221,115.120117 C251.347909,118.761411 252.258219,124.145798 252.413167,131.273438 L252.413167,137.14209 L252.355062,142.545898 C252.355062,145.761084 252.77148,149.915583 253.60433,155.009521 C254.437179,160.10346 254.853597,164.238591 254.853597,167.415039 C254.853597,169.119475 254.301601,170.504308 253.197591,171.56958 C252.093582,172.634852 250.708749,173.16748 249.04305,173.16748 Z" id="sinon" fill="#FFFFFF"></path>
    </g>
</svg>