<?xml version="1.0" encoding="UTF-8"?>
<svg width="256px" height="256px" viewBox="0 0 256 256" version="1.1" xmlns="http://www.w3.org/2000/svg" xmlns:xlink="http://www.w3.org/1999/xlink">
    <!-- Generator: Sketch 52.5 (67469) - http://www.bohemiancoding.com/sketch -->
    <title>Artboard</title>
    <desc>Created with Sketch.</desc>
    <g id="Artboard" stroke="none" stroke-width="1" fill="none" fill-rule="evenodd">
        <text id="Si:" font-family="ComicSansMS, Comic Sans MS" font-size="120" font-weight="normal" letter-spacing="-4.63123465" fill="#FFFFFF">
            <tspan x="0.0991957188" y="173">Si:</tspan>
        </text>
        <path id="Line" d="M216.223537,87.3333333 C216.403819,88.0003467 216.5,88.7019043 216.5,89.4259262 C216.5,112.545727 216.5,112.545727 216.5,130.810071 C216.5,176.72931 216.5,176.72931 216.5,243.613502 C216.5,248.03178 212.918278,251.613502 208.5,251.613502 C204.081722,251.613502 200.5,248.03178 200.5,243.613502 C200.5,176.72931 200.5,176.72931 200.5,130.810071 C200.5,112.545727 200.5,112.545727 200.5,89.4259262 C200.5,88.7019043 200.596181,88.0003467 200.776463,87.3333333 L171.510692,87.3333333 C168.743363,87.3333333 166.5,85.08997 166.5,82.3226412 C166.5,81.5447558 166.681112,80.7775534 167.028993,80.0817915 L204.017752,6.10427345 C205.255339,3.62909928 208.265127,2.62583672 210.740301,3.8634238 C211.710007,4.34827692 212.496297,5.13456722 212.98115,6.10427345 L249.96991,80.0817915 C251.207497,82.5569657 250.204234,85.5667534 247.72906,86.8043405 C247.033298,87.1522214 246.266096,87.3333333 245.48821,87.3333333 L216.223537,87.3333333 Z" fill="#FFFFFF" fill-rule="nonzero"></path>
    </g>
</svg>