<?xml version="1.0" encoding="UTF-8"?>
<svg width="256px" height="256px" viewBox="0 0 256 256" version="1.1" xmlns="http://www.w3.org/2000/svg" xmlns:xlink="http://www.w3.org/1999/xlink">
    <!-- Generator: Sketch 52.5 (67469) - http://www.bohemiancoding.com/sketch -->
    <title>Artboard</title>
    <desc>Created with Sketch.</desc>
    <g id="Artboard" stroke="none" stroke-width="1" fill="none" fill-rule="evenodd">
        <path d="M4.00192114,153.183594 C3.96285845,151.542961 4.51949351,150.205083 5.67184302,149.169922 C6.82419253,148.13476 8.24019399,147.617188 9.91988989,147.617188 C11.833962,147.617188 13.5136327,148.710927 14.9589524,150.898438 C16.9511499,153.867202 18.7284758,155.878901 20.2909836,156.933594 C23.6113127,159.121105 28.4354833,160.214844 34.7636399,160.214844 C40.8183577,160.214844 46.4433014,158.906263 51.6386399,156.289062 C58.2792981,152.929671 61.5995774,148.261749 61.5995774,142.285156 C61.5995774,137.363257 58.8066366,133.476577 53.2206711,130.625 C48.494085,128.16405 42.6542997,126.835938 35.7011399,126.640625 C29.529234,126.406249 24.2753803,125.058606 19.9394211,122.597656 C14.3925184,119.433578 11.6191086,114.902373 11.6191086,109.003906 C11.6191086,102.050746 15.5643817,95.7031537 23.4550461,89.9609375 C30.9941463,84.5312229 38.7870372,81.8164062 46.8339524,81.8164062 C50.6230338,81.8164062 54.9003348,82.4609311 59.6659836,83.75 C65.9941403,85.4296959 69.1581711,87.5781119 69.1581711,90.1953125 C69.1581711,93.6328297 67.4003762,95.3515625 63.8847336,95.3515625 C62.3222258,95.3515625 59.5878782,94.9316448 55.6816086,94.0917969 C51.7753391,93.2519489 48.7480256,92.8515623 46.5995774,92.890625 C40.5057969,92.9687504 35.3300674,94.4726416 31.0722336,97.4023438 C26.6972118,100.410171 24.5097336,104.062479 24.5097336,108.359375 C24.5097336,111.601579 27.4003297,113.886712 33.1816086,115.214844 C35.3300569,115.722659 39.4901715,116.191404 45.6620774,116.621094 C54.6074346,117.28516 61.5995522,120.097631 66.6386399,125.058594 C71.2480379,129.589866 73.5527024,135.117155 73.5527024,141.640625 C73.5527024,150.937546 69.2558704,158.359347 60.6620774,163.90625 C53.2011026,168.710962 44.5488454,171.113281 34.7050461,171.113281 C27.5565729,171.113281 21.0136696,169.746107 15.0761399,167.011719 C7.81047856,163.652327 4.11910923,159.042998 4.00192114,153.183594 Z M94.0581861,93.59375 C92.1831768,93.59375 90.5620992,92.9296941 89.1949049,91.6015625 C87.8277106,90.2734309 87.1441236,88.6718844 87.1441236,86.796875 C87.1441236,84.9218656 87.8277106,83.3203191 89.1949049,81.9921875 C90.5620992,80.6640559 92.1831768,80 94.0581861,80 C95.9331955,80 97.5445075,80.6640559 98.8921705,81.9921875 C100.239834,83.3203191 100.913655,84.9218656 100.913655,86.796875 C100.913655,88.6718844 100.239834,90.2734309 98.8921705,91.6015625 C97.5445075,92.9296941 95.9331955,93.59375 94.0581861,93.59375 Z M96.6949049,141.171875 C96.6949049,143.515637 96.7632636,147.021461 96.899983,151.689453 C97.0367025,156.357445 97.1050611,159.86327 97.1050611,162.207031 C97.1050611,163.92579 96.5777227,165.332026 95.5230299,166.425781 C94.4683371,167.519537 93.0816322,168.066406 91.3628736,168.066406 C89.6831777,168.066406 88.3062384,167.519537 87.2320143,166.425781 C86.1577901,165.332026 85.6206861,163.92579 85.6206861,162.207031 C85.6206861,159.86327 85.5523275,156.357445 85.415608,151.689453 C85.2788886,147.021461 85.2105299,143.515637 85.2105299,141.171875 C85.2105299,137.499982 85.4058404,132.919949 85.7964674,127.431641 C86.1870943,121.943332 86.3824049,117.3633 86.3824049,113.691406 C86.3824049,111.933585 86.9195089,110.507818 87.993733,109.414062 C89.0679571,108.320307 90.4448965,107.773438 92.1245924,107.773438 C93.8042883,107.773438 95.1812276,108.320307 96.2554518,109.414062 C97.3296759,110.507818 97.8667799,111.933585 97.8667799,113.691406 C97.8667799,117.3633 97.6714693,121.943332 97.2808424,127.431641 C96.8902154,132.919949 96.6949049,137.499982 96.6949049,141.171875 Z M127.981639,154.53125 C127.981639,156.289071 127.415238,157.734369 126.28242,158.867188 C125.149602,160.000006 123.704304,160.566406 121.946482,160.566406 C120.188661,160.566406 118.762894,160.000006 117.669139,158.867188 C116.53632,157.734369 115.96992,156.289071 115.96992,154.53125 C115.96992,153.789059 115.842968,152.705085 115.589061,151.279297 C115.335153,149.853508 115.208201,148.789066 115.208201,148.085938 C115.208201,146.445304 115.823429,145.07813 117.053904,143.984375 C118.284379,142.89062 119.739443,142.34375 121.419139,142.34375 C125.794161,142.34375 127.981639,146.406209 127.981639,154.53125 Z M126.985545,111.757812 C126.985545,113.515634 126.42891,114.960932 125.315623,116.09375 C124.202336,117.226568 122.766804,117.792969 121.008982,117.792969 C119.251161,117.792969 117.805863,117.226568 116.673045,116.09375 C115.540227,114.960932 114.973826,113.515634 114.973826,111.757812 C114.973826,111.28906 114.885936,110.576177 114.710154,109.619141 C114.534372,108.662105 114.446482,107.92969 114.446482,107.421875 C114.446482,105.742179 115.032414,104.355474 116.204295,103.261719 C117.376176,102.167963 118.821474,101.621094 120.540232,101.621094 C124.837129,101.621094 126.985545,104.999966 126.985545,111.757812 Z" id="Si:" fill="#FFFFFF"></path>
        <path id="Line" d="M216.223537,87.3333333 C216.403819,88.0003467 216.5,88.7019043 216.5,89.4259262 C216.5,112.545727 216.5,112.545727 216.5,130.810071 C216.5,176.72931 216.5,176.72931 216.5,243.613502 C216.5,248.03178 212.918278,251.613502 208.5,251.613502 C204.081722,251.613502 200.5,248.03178 200.5,243.613502 C200.5,176.72931 200.5,176.72931 200.5,130.810071 C200.5,112.545727 200.5,112.545727 200.5,89.4259262 C200.5,88.7019043 200.596181,88.0003467 200.776463,87.3333333 L171.510692,87.3333333 C168.743363,87.3333333 166.5,85.08997 166.5,82.3226412 C166.5,81.5447558 166.681112,80.7775534 167.028993,80.0817915 L204.017752,6.10427345 C205.255339,3.62909928 208.265127,2.62583672 210.740301,3.8634238 C211.710007,4.34827692 212.496297,5.13456722 212.98115,6.10427345 L249.96991,80.0817915 C251.207497,82.5569657 250.204234,85.5667534 247.72906,86.8043405 C247.033298,87.1522214 246.266096,87.3333333 245.48821,87.3333333 L216.223537,87.3333333 Z" fill="#FFFFFF" fill-rule="nonzero"></path>
    </g>
</svg>