<?xml version="1.0" encoding="UTF-8"?>
<svg width="256px" height="256px" viewBox="0 0 256 256" version="1.1" xmlns="http://www.w3.org/2000/svg" xmlns:xlink="http://www.w3.org/1999/xlink">
    <!-- Generator: Sketch 52.5 (67469) - http://www.bohemiancoding.com/sketch -->
    <title>Artboard</title>
    <desc>Created with Sketch.</desc>
    <g id="Artboard" stroke="none" stroke-width="1" fill="none" fill-rule="evenodd">
        <path d="M67.0019211,82.1835938 C66.9628584,80.5429605 67.5194935,79.2050833 68.671843,78.1699219 C69.8241925,77.1347604 71.240194,76.6171875 72.9198899,76.6171875 C74.833962,76.6171875 76.5136327,77.7109266 77.9589524,79.8984375 C79.9511499,82.8672023 81.7284758,84.878901 83.2909836,85.9335938 C86.6113127,88.1211047 91.4354833,89.2148438 97.7636399,89.2148438 C103.818358,89.2148438 109.443301,87.9062631 114.63864,85.2890625 C121.279298,81.9296707 124.599577,77.2617486 124.599577,71.2851562 C124.599577,66.3632566 121.806637,62.4765768 116.220671,59.625 C111.494085,57.1640502 105.6543,55.8359385 98.7011399,55.640625 C92.529234,55.4062488 87.2753803,54.0586061 82.9394211,51.5976562 C77.3925184,48.4335779 74.6191086,43.9023732 74.6191086,38.0039062 C74.6191086,31.0507465 78.5643817,24.7031537 86.4550461,18.9609375 C93.9941463,13.5312229 101.787037,10.8164062 109.833952,10.8164062 C113.623034,10.8164062 117.900335,11.4609311 122.665984,12.75 C128.99414,14.4296959 132.158171,16.5781119 132.158171,19.1953125 C132.158171,22.6328297 130.400376,24.3515625 126.884734,24.3515625 C125.322226,24.3515625 122.587878,23.9316448 118.681609,23.0917969 C114.775339,22.2519489 111.748026,21.8515623 109.599577,21.890625 C103.505797,21.9687504 98.3300674,23.4726416 94.0722336,26.4023438 C89.6972118,29.4101713 87.5097336,33.0624785 87.5097336,37.359375 C87.5097336,40.6015787 90.4003297,42.8867121 96.1816086,44.2148438 C98.3300569,44.7226588 102.490172,45.1914041 108.662077,45.6210938 C117.607435,46.2851596 124.599552,49.0976314 129.63864,54.0585938 C134.248038,58.5898664 136.552702,64.1171549 136.552702,70.640625 C136.552702,79.9375465 132.25587,87.3593473 123.662077,92.90625 C116.201103,97.7109615 107.548845,100.113281 97.7050461,100.113281 C90.5565729,100.113281 84.0136696,98.7461074 78.0761399,96.0117188 C70.8104786,92.652327 67.1191092,88.042998 67.0019211,82.1835938 Z M157.058186,22.59375 C155.183177,22.59375 153.562099,21.9296941 152.194905,20.6015625 C150.827711,19.2734309 150.144124,17.6718844 150.144124,15.796875 C150.144124,13.9218656 150.827711,12.3203191 152.194905,10.9921875 C153.562099,9.66405586 155.183177,9 157.058186,9 C158.933196,9 160.544508,9.66405586 161.892171,10.9921875 C163.239834,12.3203191 163.913655,13.9218656 163.913655,15.796875 C163.913655,17.6718844 163.239834,19.2734309 161.892171,20.6015625 C160.544508,21.9296941 158.933196,22.59375 157.058186,22.59375 Z M159.694905,70.171875 C159.694905,72.5156367 159.763264,76.021461 159.899983,80.6894531 C160.036702,85.3574452 160.105061,88.8632695 160.105061,91.2070312 C160.105061,92.9257898 159.577723,94.3320258 158.52303,95.4257812 C157.468337,96.5195367 156.081632,97.0664062 154.362874,97.0664062 C152.683178,97.0664062 151.306238,96.5195367 150.232014,95.4257812 C149.15779,94.3320258 148.620686,92.9257898 148.620686,91.2070312 C148.620686,88.8632695 148.552327,85.3574452 148.415608,80.6894531 C148.278889,76.021461 148.21053,72.5156367 148.21053,70.171875 C148.21053,66.4999816 148.40584,61.9199493 148.796467,56.4316406 C149.187094,50.9433319 149.382405,46.3632996 149.382405,42.6914062 C149.382405,40.933585 149.919509,39.507818 150.993733,38.4140625 C152.067957,37.320307 153.444896,36.7734375 155.124592,36.7734375 C156.804288,36.7734375 158.181228,37.320307 159.255452,38.4140625 C160.329676,39.507818 160.86678,40.933585 160.86678,42.6914062 C160.86678,46.3632996 160.671469,50.9433319 160.280842,56.4316406 C159.890215,61.9199493 159.694905,66.4999816 159.694905,70.171875 Z M190.981639,83.53125 C190.981639,85.2890713 190.415238,86.7343693 189.28242,87.8671875 C188.149602,89.0000057 186.704304,89.5664062 184.946482,89.5664062 C183.188661,89.5664062 181.762894,89.0000057 180.669139,87.8671875 C179.53632,86.7343693 178.96992,85.2890713 178.96992,83.53125 C178.96992,82.7890588 178.842968,81.7050853 178.589061,80.2792969 C178.335153,78.8535085 178.208201,77.789066 178.208201,77.0859375 C178.208201,75.4453043 178.823429,74.0781305 180.053904,72.984375 C181.284379,71.8906195 182.739443,71.34375 184.419139,71.34375 C188.794161,71.34375 190.981639,75.4062094 190.981639,83.53125 Z M189.985545,40.7578125 C189.985545,42.5156338 189.42891,43.9609318 188.315623,45.09375 C187.202336,46.2265682 185.766804,46.7929688 184.008982,46.7929688 C182.251161,46.7929688 180.805863,46.2265682 179.673045,45.09375 C178.540227,43.9609318 177.973826,42.5156338 177.973826,40.7578125 C177.973826,40.2890602 177.885936,39.5761767 177.710154,38.6191406 C177.534372,37.6621046 177.446482,36.92969 177.446482,36.421875 C177.446482,34.7421791 178.032414,33.3554742 179.204295,32.2617188 C180.376176,31.1679633 181.821474,30.6210938 183.540232,30.6210938 C187.837129,30.6210938 189.985545,33.9999662 189.985545,40.7578125 Z" id="Si:" fill="#FFFFFF"></path>
        <path id="Line" d="M165.666667,202.5 L13,202.5 C8.581722,202.5 5,198.918278 5,194.5 C5,190.081722 8.581722,186.5 13,186.5 L165.666667,186.5 L165.666667,157.51179 C165.666667,156.733904 165.847779,155.966702 166.19566,155.27094 C167.433247,152.795766 170.443034,151.792503 172.918208,153.03009 L246.895727,190.01885 C247.865433,190.503703 248.651723,191.289993 249.136576,192.259699 C250.374163,194.734873 249.370901,197.744661 246.895727,198.982248 L172.918208,235.971007 C172.222447,236.318888 171.455244,236.5 170.677359,236.5 C167.91003,236.5 165.666667,234.256637 165.666667,231.489308 L165.666667,202.5 Z" fill="#FFFFFF" fill-rule="nonzero"></path>
    </g>
</svg>