<?xml version="1.0" encoding="UTF-8"?>
<svg width="256px" height="256px" viewBox="0 0 256 256" version="1.1" xmlns="http://www.w3.org/2000/svg" xmlns:xlink="http://www.w3.org/1999/xlink">
    <!-- Generator: Sketch 52.5 (67469) - http://www.bohemiancoding.com/sketch -->
    <title>Artboard</title>
    <desc>Created with Sketch.</desc>
    <g id="Artboard" stroke="none" stroke-width="1" fill="none" fill-rule="evenodd">
        <path d="M66.0019211,85.1835938 C65.9628584,83.5429605 66.5194935,82.2050833 67.671843,81.1699219 C68.8241925,80.1347604 70.240194,79.6171875 71.9198899,79.6171875 C73.833962,79.6171875 75.5136327,80.7109266 76.9589524,82.8984375 C78.9511499,85.8672023 80.7284758,87.878901 82.2909836,88.9335938 C85.6113127,91.1211047 90.4354833,92.2148438 96.7636399,92.2148438 C102.818358,92.2148438 108.443301,90.9062631 113.63864,88.2890625 C120.279298,84.9296707 123.599577,80.2617486 123.599577,74.2851562 C123.599577,69.3632566 120.806637,65.4765768 115.220671,62.625 C110.494085,60.1640502 104.6543,58.8359385 97.7011399,58.640625 C91.529234,58.4062488 86.2753803,57.0586061 81.9394211,54.5976562 C76.3925184,51.4335779 73.6191086,46.9023732 73.6191086,41.0039062 C73.6191086,34.0507465 77.5643817,27.7031537 85.4550461,21.9609375 C92.9941463,16.5312229 100.787037,13.8164062 108.833952,13.8164062 C112.623034,13.8164062 116.900335,14.4609311 121.665984,15.75 C127.99414,17.4296959 131.158171,19.5781119 131.158171,22.1953125 C131.158171,25.6328297 129.400376,27.3515625 125.884734,27.3515625 C124.322226,27.3515625 121.587878,26.9316448 117.681609,26.0917969 C113.775339,25.2519489 110.748026,24.8515623 108.599577,24.890625 C102.505797,24.9687504 97.3300674,26.4726416 93.0722336,29.4023438 C88.6972118,32.4101713 86.5097336,36.0624785 86.5097336,40.359375 C86.5097336,43.6015787 89.4003297,45.8867121 95.1816086,47.2148438 C97.3300569,47.7226588 101.490172,48.1914041 107.662077,48.6210938 C116.607435,49.2851596 123.599552,52.0976314 128.63864,57.0585938 C133.248038,61.5898664 135.552702,67.1171549 135.552702,73.640625 C135.552702,82.9375465 131.25587,90.3593473 122.662077,95.90625 C115.201103,100.710962 106.548845,103.113281 96.7050461,103.113281 C89.5565729,103.113281 83.0136696,101.746107 77.0761399,99.0117188 C69.8104786,95.652327 66.1191092,91.042998 66.0019211,85.1835938 Z M156.058186,25.59375 C154.183177,25.59375 152.562099,24.9296941 151.194905,23.6015625 C149.827711,22.2734309 149.144124,20.6718844 149.144124,18.796875 C149.144124,16.9218656 149.827711,15.3203191 151.194905,13.9921875 C152.562099,12.6640559 154.183177,12 156.058186,12 C157.933196,12 159.544508,12.6640559 160.892171,13.9921875 C162.239834,15.3203191 162.913655,16.9218656 162.913655,18.796875 C162.913655,20.6718844 162.239834,22.2734309 160.892171,23.6015625 C159.544508,24.9296941 157.933196,25.59375 156.058186,25.59375 Z M158.694905,73.171875 C158.694905,75.5156367 158.763264,79.021461 158.899983,83.6894531 C159.036702,88.3574452 159.105061,91.8632695 159.105061,94.2070312 C159.105061,95.9257898 158.577723,97.3320258 157.52303,98.4257812 C156.468337,99.5195367 155.081632,100.066406 153.362874,100.066406 C151.683178,100.066406 150.306238,99.5195367 149.232014,98.4257812 C148.15779,97.3320258 147.620686,95.9257898 147.620686,94.2070312 C147.620686,91.8632695 147.552327,88.3574452 147.415608,83.6894531 C147.278889,79.021461 147.21053,75.5156367 147.21053,73.171875 C147.21053,69.4999816 147.40584,64.9199493 147.796467,59.4316406 C148.187094,53.9433319 148.382405,49.3632996 148.382405,45.6914062 C148.382405,43.933585 148.919509,42.507818 149.993733,41.4140625 C151.067957,40.320307 152.444896,39.7734375 154.124592,39.7734375 C155.804288,39.7734375 157.181228,40.320307 158.255452,41.4140625 C159.329676,42.507818 159.86678,43.933585 159.86678,45.6914062 C159.86678,49.3632996 159.671469,53.9433319 159.280842,59.4316406 C158.890215,64.9199493 158.694905,69.4999816 158.694905,73.171875 Z M189.981639,86.53125 C189.981639,88.2890713 189.415238,89.7343693 188.28242,90.8671875 C187.149602,92.0000057 185.704304,92.5664062 183.946482,92.5664062 C182.188661,92.5664062 180.762894,92.0000057 179.669139,90.8671875 C178.53632,89.7343693 177.96992,88.2890713 177.96992,86.53125 C177.96992,85.7890588 177.842968,84.7050853 177.589061,83.2792969 C177.335153,81.8535085 177.208201,80.789066 177.208201,80.0859375 C177.208201,78.4453043 177.823429,77.0781305 179.053904,75.984375 C180.284379,74.8906195 181.739443,74.34375 183.419139,74.34375 C187.794161,74.34375 189.981639,78.4062094 189.981639,86.53125 Z M188.985545,43.7578125 C188.985545,45.5156338 188.42891,46.9609318 187.315623,48.09375 C186.202336,49.2265682 184.766804,49.7929688 183.008982,49.7929688 C181.251161,49.7929688 179.805863,49.2265682 178.673045,48.09375 C177.540227,46.9609318 176.973826,45.5156338 176.973826,43.7578125 C176.973826,43.2890602 176.885936,42.5761767 176.710154,41.6191406 C176.534372,40.6621046 176.446482,39.92969 176.446482,39.421875 C176.446482,37.7421791 177.032414,36.3554742 178.204295,35.2617188 C179.376176,34.1679633 180.821474,33.6210938 182.540232,33.6210938 C186.837129,33.6210938 188.985545,36.9999662 188.985545,43.7578125 Z" id="Si:" fill="#FFFFFF"></path>
        <path id="Line" d="M87.8333333,186.5 L240,186.5 C244.418278,186.5 248,190.081722 248,194.5 C248,198.918278 244.418278,202.5 240,202.5 L87.8333333,202.5 L87.8333333,231.489308 C87.8333333,234.256637 85.58997,236.5 82.8226412,236.5 C82.0447558,236.5 81.2775534,236.318888 80.5817915,235.971007 L6.60427345,198.982248 C4.12909928,197.744661 3.12583672,194.734873 4.3634238,192.259699 C4.84827692,191.289993 5.63456722,190.503703 6.60427345,190.01885 L80.5817915,153.03009 C83.0569657,151.792503 86.0667534,152.795766 87.3043405,155.27094 C87.6522214,155.966702 87.8333333,156.733904 87.8333333,157.51179 L87.8333333,186.5 Z" fill="#FFFFFF" fill-rule="nonzero"></path>
    </g>
</svg>